<svg fill="#000000" height="800px" width="800px" version="1.1" id="Layer_1" xmlns="http://www.w3.org/2000/svg" xmlns:xlink="http://www.w3.org/1999/xlink" 
	 viewBox="0 0 512 512" xml:space="preserve">
<g>
	<g>
		<path d="M444.127,290.739h-60.395V276.6c23.356-6.376,44.526-19.303,60.95-37.42c0.122,3.453,2.524,6.527,5.859,7.446
			c3.649,1.007,7.612-0.758,9.304-4.143l6.429-12.858c1.163,0.121,2.333,0.187,3.503,0.187c18.566,0,33.67-15.105,33.67-33.67
			c0-8.533-3.263-16.727-9.029-22.93c0.314-0.871,0.478-1.793,0.478-2.724v-25.653c0-22.139-5-43.129-13.919-61.912
			C498.84,78.001,512,61.624,512,42.221C512,18.941,493.059,0,469.779,0c-16.862,0-31.84,9.966-38.541,24.945
			C408.068,9.206,380.121,0,350.063,0C270.2,0,205.228,64.973,205.228,144.835v25.653c0,0.931,0.162,1.851,0.478,2.724
			c-5.767,6.202-9.029,14.396-9.029,22.93c0,18.566,15.105,33.67,33.67,33.67c1.17,0,2.341-0.065,3.504-0.186l6.428,12.857
			c1.662,3.324,5.388,5.069,9.013,4.217c3.516-0.831,6.008-3.908,6.148-7.493c16.422,18.144,37.561,31.058,60.954,37.417v14.116
			h-60.392c-32.711,0-59.324,26.612-59.324,59.324v0.534H76.426c-4.428,0-8.017,3.588-8.017,8.017c0,4.428,3.588,8.017,8.017,8.017
			h155.991l22.218,103.683H40.151L17.933,366.63H43.29c4.428,0,8.017-3.588,8.017-8.017c0-4.428-3.588-8.017-8.017-8.017H8.017
			c-5.023,0-8.89,4.781-7.839,9.696l25.476,118.888v24.803c0,4.428,3.588,8.017,8.017,8.017h461.762
			c4.428,0,8.017-3.588,8.017-8.017V401.37c0-4.428-3.588-8.017-8.017-8.017c-4.428,0-8.017,3.588-8.017,8.017v94.597H358.079
			V478.33c0-4.428-3.588-8.017-8.017-8.017h-79.031l-24.295-113.379c-0.792-3.696-4.06-6.337-7.839-6.337H212.71v-0.534
			c0-23.871,19.42-43.29,43.29-43.29h17.637v60.393c0,6.57,7.864,10.388,13.026,6.259l38.179-30.543l20.776,13.851
			c2.664,1.775,6.229,1.776,8.893,0l20.776-13.851l38.179,30.543c5.16,4.127,13.026,0.311,13.026-6.259v-60.393h17.637
			c23.87,0,43.29,19.42,43.29,43.29v17.102c0,4.428,3.588,8.017,8.017,8.017c4.428,0,8.017-3.588,8.017-8.017v-17.102
			C503.451,317.351,476.839,290.739,444.127,290.739z M342.046,486.347v9.62H41.687v-9.62H342.046z M316.393,329.108l-26.722,21.378
			v-43.713h26.722V329.108z M486.198,189.779c0.78,2.013,1.216,4.162,1.216,6.363c0.001,8.076-5.462,14.884-12.881,16.968
			L486.198,189.779z M469.779,16.033c14.441,0,26.188,11.747,26.188,26.188c0,13.378-10.085,24.438-23.051,25.993
			c-7.756-12.392-17.327-23.535-28.348-33.046C447.712,23.879,457.996,16.033,469.779,16.033z M212.71,196.142
			c0-2.201,0.436-4.351,1.216-6.364l11.666,23.331C218.173,211.026,212.71,204.217,212.71,196.142z M247.449,162.472
			c-4.428,0-8.017,3.588-8.017,8.017v34.449l-18.171-36.342v-23.76c0-71.022,57.78-128.802,128.802-128.802
			s128.802,57.78,128.802,128.802v23.76l-18.171,36.342v-34.449c0-4.428-3.588-8.017-8.017-8.017h-51.841v-26.188
			c0-4.428-3.588-8.017-8.017-8.017c-4.428,0-8.017,3.588-8.017,8.017v26.188h-26.722V110.63c0-4.428-3.588-8.017-8.017-8.017
			c-4.428,0-8.017,3.588-8.017,8.017v51.841h-26.722v-26.188c0-4.428-3.588-8.017-8.017-8.017c-4.428,0-8.017,3.588-8.017,8.017
			v26.188H247.449z M367.699,298.756v29.914l-17.637,11.758l-17.637-11.758v-29.914v-17.637h35.273V298.756z M350.063,265.086
			c-38.033,0-73.106-19.084-93.818-51.05c-0.234-0.362-0.5-0.692-0.779-1.003v-34.527H444.66v35.311
			c-0.749,0.539-1.423,1.208-1.97,2.017C421.855,246.673,387.228,265.086,350.063,265.086z M410.455,350.486l-26.722-21.378v-22.336
			h26.722V350.486z"/>
	</g>
</g>
<g>
	<g>
		<path d="M357.919,374.144c-1.319-6.898-10.656-8.64-14.526-2.874c-2.027,3.019-1.687,7.135,0.727,9.83
			c2.324,2.594,6.228,3.345,9.369,1.864C356.764,381.419,358.648,377.698,357.919,374.144z"/>
	</g>
</g>
<g>
	<g>
		<path d="M355.728,404.256c-4.855-5.008-13.526-1.322-13.679,5.498c-0.077,3.473,2.199,6.696,5.498,7.773
			c3.347,1.093,7.073-0.15,9.093-3.029C358.836,411.367,358.438,406.946,355.728,404.256z"/>
	</g>
</g>
<g>
	<g>
		<path d="M357.47,441.058c-1.325-3.148-4.576-5.184-7.999-4.924c-3.34,0.254-6.239,2.62-7.128,5.853
			c-0.909,3.3,0.423,6.908,3.274,8.809c2.741,1.827,6.423,1.762,9.101-0.147C357.743,448.492,358.838,444.485,357.47,441.058z"/>
	</g>
</g>
<g>
	<g>
		<path d="M382.13,216.986c-2.655-3.542-7.682-4.258-11.223-1.605c-3.461,2.595-10.771,6.949-20.845,6.949
			c-4.325,0-12.784-0.903-20.843-6.948c-3.541-2.656-8.567-1.938-11.223,1.603c-2.656,3.541-1.938,8.567,1.603,11.223
			c11.78,8.835,24.143,10.154,30.463,10.154c14.722,0,25.405-6.362,30.462-10.153C384.067,225.554,384.786,220.528,382.13,216.986z"
			/>
	</g>
</g>
<g>
	<g>
		<path d="M306.163,184.523c-2.734-6.498-12.344-6.45-14.884,0.183c-2.631,6.866,5.001,13.491,11.424,9.859
			C306.206,192.586,307.645,188.236,306.163,184.523z"/>
	</g>
</g>
<g>
	<g>
		<path d="M406.418,181.37c-5.708-4.638-14.428,0.62-12.891,7.866c0.776,3.66,4.095,6.372,7.842,6.372
			C408.742,195.608,412.156,186.032,406.418,181.37z"/>
	</g>
</g>
<g>
	<g>
		<path d="M102.079,0C45.792,0,0,41.956,0,93.528c0,51.399,45.481,93.246,101.509,93.527l46.599,40.774
			c5.087,4.45,13.295,0.699,13.295-6.034v-52.142c26.86-17.569,42.756-45.711,42.756-76.125C204.159,41.956,158.366,0,102.079,0z
			 M149.299,158.308c-2.435,1.444-3.929,4.065-3.929,6.895v38.924l-35.601-31.15c-2.269-1.986-4.855-1.956-7.69-1.956
			c-47.446,0.001-86.046-34.763-86.046-77.494s38.6-77.495,86.046-77.495s86.046,34.764,86.046,77.495
			C188.125,119.679,173.611,143.896,149.299,158.308z"/>
	</g>
</g>
<g>
	<g>
		<path d="M102.079,76.96c-4.428,0-8.017,3.588-8.017,8.017v51.307c0,4.428,3.588,8.017,8.017,8.017s8.017-3.588,8.017-8.017V84.977
			C110.096,80.549,106.508,76.96,102.079,76.96z"/>
	</g>
</g>
<g>
	<g>
		<path d="M102.079,51.307c-4.428,0-8.017,3.588-8.017,8.017v1.069c0,4.428,3.588,8.017,8.017,8.017s8.017-3.588,8.017-8.017v-1.069
			C110.096,54.895,106.508,51.307,102.079,51.307z"/>
	</g>
</g>
<g>
	<g>
		<path d="M136.284,393.353c-13.851,0-25.119,11.268-25.119,25.119c0,13.851,11.268,25.119,25.119,25.119
			s25.119-11.268,25.119-25.119C161.403,404.621,150.135,393.353,136.284,393.353z M136.284,427.557
			c-5.01,0-9.086-4.076-9.086-9.086c0-5.01,4.076-9.086,9.086-9.086s9.086,4.076,9.086,9.086
			C145.37,423.482,141.294,427.557,136.284,427.557z"/>
	</g>
</g>
<g>
	<g>
		<path d="M204.693,410.455h-17.102c-4.428,0-8.017,3.588-8.017,8.017c0,4.428,3.588,8.017,8.017,8.017h17.102
			c4.428,0,8.017-3.588,8.017-8.017C212.71,414.043,209.122,410.455,204.693,410.455z"/>
	</g>
</g>
<g>
	<g>
		<path d="M84.977,410.455H67.875c-4.428,0-8.017,3.588-8.017,8.017c0,4.428,3.588,8.017,8.017,8.017h17.102
			c4.428,0,8.017-3.588,8.017-8.017C92.994,414.043,89.405,410.455,84.977,410.455z"/>
	</g>
</g>
</svg>